<svg width="51" height="16" viewBox="0 0 51 16" fill="none" xmlns="http://www.w3.org/2000/svg">
<path d="M7.67121 15.8855V6.01551L5.60449 12.5271H4.3049L2.34649 6.14908V15.8855H0V0H2.11184L5.05397 8.3721L7.90586 0H10.0809V15.8855H7.67121Z" fill="#E0E0E0"/>
<path d="M12.107 0H18.3297V2.27072H14.449V6.76446H17.7972V9.01133H14.449V13.6196H18.3297V15.8903H12.107V0Z" fill="#E0E0E0"/>
<path d="M20.1391 15.8855V0H22.4856V15.8855H20.1391Z" fill="#E0E0E0"/>
<path d="M32.1198 11.9165C32.1198 14.2779 30.6081 16 28.3699 16C26.0911 16 24.6201 14.2731 24.6201 11.9165V0H26.944V12.0501C26.944 13.1616 27.5622 13.7531 28.3699 13.7531C29.1145 13.7531 29.7959 13.1616 29.7959 12.0501V0H32.1198V11.9165Z" fill="#E0E0E0"/>
<path d="M41.5373 11.5731C41.5373 13.9106 40.4949 15.8855 37.828 15.8855C34.3534 15.8855 33.9293 13.3429 33.9293 7.96661C33.9293 2.54264 34.358 0 37.828 0C40.5987 0 41.5373 1.76983 41.5373 4.26476H39.2359C39.2359 2.99583 38.9381 2.17531 37.828 2.17531C36.1449 2.17531 36.2306 4.60346 36.2306 7.93799C36.2306 11.1628 36.1449 13.6577 37.828 13.6577C38.8524 13.6577 39.254 12.9326 39.254 11.5683H41.5373V11.5731Z" fill="#E0E0E0"/>
<path d="M47.2276 0C49.8268 0 51 1.63626 51 4.04055V15.8855H48.6761V9.05427H45.7971V15.8855H43.4506V4.04055C43.4551 1.72689 44.6735 0 47.2276 0ZM45.8422 6.89803H48.7212V3.94991C48.7212 2.8384 48.0624 2.29457 47.2727 2.29457C46.5056 2.29457 45.8467 2.8384 45.8467 3.94991V6.89803H45.8422Z" fill="#E0E0E0"/>
</svg>
